<svg width="89" height="13" fill="none" xmlns="http://www.w3.org/2000/svg"><path d="M8 12H.352v-1.305L4.14 6.562c.546-.609.935-1.117 1.164-1.523.234-.411.351-.823.351-1.234 0-.542-.153-.98-.46-1.313-.303-.333-.712-.5-1.227-.5-.615 0-1.091.188-1.43.563-.338.375-.508.888-.508 1.539H.133c0-.693.156-1.315.469-1.867.317-.558.768-.99 1.351-1.297C2.542.622 3.22.469 3.984.469c1.105 0 1.974.278 2.61.836.64.552.96 1.317.96 2.297 0 .567-.16 1.164-.484 1.789-.317.62-.84 1.325-1.57 2.117l-2.781 2.976H8V12Zm6.586 0h-1.89V2.867l-2.79.953v-1.6L14.344.586h.242V12Zm8.242 0V.625h3.36c1.005 0 1.895.224 2.671.672a4.574 4.574 0 0 1 1.813 1.906c.427.823.64 1.766.64 2.828v.57c0 1.079-.216 2.027-.648 2.844a4.495 4.495 0 0 1-1.836 1.89c-.791.444-1.7.665-2.726.665h-3.274Zm1.977-9.781v8.203h1.289c1.036 0 1.83-.323 2.383-.969.557-.65.84-1.583.851-2.797v-.633c0-1.234-.268-2.177-.805-2.828-.536-.65-1.315-.976-2.335-.976h-1.383ZM39.93 6.922h-4.672v3.5h5.46V12h-7.437V.625h7.383v1.594h-5.406v3.14h4.672v1.563Zm11.078 1.375c-.115 1.213-.563 2.161-1.344 2.844-.781.677-1.82 1.015-3.117 1.015-.906 0-1.706-.213-2.399-.64-.687-.433-1.218-1.045-1.593-1.836-.375-.792-.57-1.711-.586-2.758V5.859c0-1.073.19-2.018.57-2.836.38-.817.925-1.447 1.633-1.89.713-.443 1.536-.664 2.469-.664 1.255 0 2.265.34 3.03 1.023.767.682 1.212 1.646 1.337 2.89h-1.969c-.094-.817-.333-1.405-.719-1.765-.38-.364-.94-.547-1.68-.547-.859 0-1.52.315-1.984.946-.458.625-.692 1.544-.703 2.757v1.008c0 1.23.219 2.167.656 2.813.443.646 1.089.969 1.938.969.776 0 1.36-.175 1.75-.524.39-.349.638-.93.742-1.742h1.969ZM64.109 12h-7.648v-1.305l3.789-4.133c.547-.609.935-1.117 1.164-1.523.234-.411.352-.823.352-1.234 0-.542-.154-.98-.461-1.313-.302-.333-.711-.5-1.227-.5-.614 0-1.091.188-1.43.563-.338.375-.507.888-.507 1.539h-1.899c0-.693.156-1.315.469-1.867.318-.558.768-.99 1.352-1.297.588-.308 1.265-.461 2.03-.461 1.105 0 1.975.278 2.61.836.64.552.961 1.317.961 2.297 0 .567-.161 1.164-.484 1.789-.318.62-.841 1.325-1.57 2.117l-2.782 2.976h5.281V12Zm8.86-4.79c0 1.636-.307 2.87-.922 3.704-.61.828-1.54 1.242-2.79 1.242-1.228 0-2.155-.403-2.78-1.21-.62-.813-.938-2.014-.954-3.602V5.375c0-1.635.305-2.862.915-3.68C67.052.878 67.987.47 69.242.47c1.245 0 2.172.398 2.781 1.195.615.797.93 1.99.946 3.578v1.969ZM71.07 5.087c0-1.068-.145-1.849-.437-2.344-.292-.5-.755-.75-1.39-.75-.62 0-1.076.237-1.368.711-.292.469-.445 1.203-.46 2.203v2.578c0 1.063.147 1.855.444 2.375.297.521.763.782 1.399.782.61 0 1.06-.24 1.351-.72.292-.483.446-1.239.461-2.265v-2.57ZM82.297 12h-7.649v-1.305l3.79-4.133c.546-.609.934-1.117 1.164-1.523.234-.411.351-.823.351-1.234 0-.542-.154-.98-.46-1.313-.303-.333-.712-.5-1.227-.5-.615 0-1.092.188-1.43.563-.339.375-.508.888-.508 1.539H74.43c0-.693.156-1.315.468-1.867.318-.558.769-.99 1.352-1.297.588-.308 1.266-.461 2.031-.461 1.104 0 1.974.278 2.61.836.64.552.96 1.317.96 2.297 0 .567-.16 1.164-.484 1.789-.318.62-.841 1.325-1.57 2.117l-2.781 2.976h5.28V12Zm6.586 0h-1.89V2.867l-2.79.953v-1.6L88.641.586h.242V12Z" fill="#1D2130"/></svg>